<?xml version="1.0" encoding="UTF-8" standalone="no"?>
<!-- Created with Inkscape (http://www.inkscape.org/) -->
<svg
   xmlns:dc="http://purl.org/dc/elements/1.1/"
   xmlns:cc="http://creativecommons.org/ns#"
   xmlns:rdf="http://www.w3.org/1999/02/22-rdf-syntax-ns#"
   xmlns:svg="http://www.w3.org/2000/svg"
   xmlns="http://www.w3.org/2000/svg"
   xmlns:sodipodi="http://sodipodi.sourceforge.net/DTD/sodipodi-0.dtd"
   xmlns:inkscape="http://www.inkscape.org/namespaces/inkscape"
   width="744.09448819"
   height="1052.3622047"
   id="svg2"
   sodipodi:version="0.32"
   inkscape:version="0.46+pre4"
   sodipodi:docname="fire symbol.svg"
   inkscape:output_extension="org.inkscape.output.svg.inkscape">
  <defs
     id="defs4">
    <inkscape:perspective
       sodipodi:type="inkscape:persp3d"
       inkscape:vp_x="0 : 526.18109 : 1"
       inkscape:vp_y="0 : 1000 : 0"
       inkscape:vp_z="744.09448 : 526.18109 : 1"
       inkscape:persp3d-origin="372.04724 : 350.78739 : 1"
       id="perspective10" />
    <inkscape:perspective
       id="perspective2390"
       inkscape:persp3d-origin="372.04724 : 350.78739 : 1"
       inkscape:vp_z="744.09448 : 526.18109 : 1"
       inkscape:vp_y="0 : 1000 : 0"
       inkscape:vp_x="0 : 526.18109 : 1"
       sodipodi:type="inkscape:persp3d" />
  </defs>
  <sodipodi:namedview
     id="base"
     pagecolor="#ffffff"
     bordercolor="#666666"
     borderopacity="1.0"
     gridtolerance="10000"
     guidetolerance="10"
     objecttolerance="10"
     inkscape:pageopacity="0.0"
     inkscape:pageshadow="2"
     inkscape:zoom="0.35"
     inkscape:cx="107.93762"
     inkscape:cy="526.28135"
     inkscape:document-units="px"
     inkscape:current-layer="layer1"
     showgrid="false"
     inkscape:window-width="1280"
     inkscape:window-height="975"
     inkscape:window-x="-4"
     inkscape:window-y="-4" />
  <metadata
     id="metadata7">
    <rdf:RDF>
      <cc:Work
         rdf:about="">
        <dc:format>image/svg+xml</dc:format>
        <dc:type
           rdf:resource="http://purl.org/dc/dcmitype/StillImage" />
        <dc:title>Fire symbol</dc:title>
        <dc:subject>
          <rdf:Bag>
            <rdf:li>Fire symbol sign flame burn</rdf:li>
          </rdf:Bag>
        </dc:subject>
      </cc:Work>
    </rdf:RDF>
  </metadata>
  <g
     inkscape:label="Layer 1"
     inkscape:groupmode="layer"
     id="layer1">
    <path
       style="fill:#ff0000"
       d="M 289.51873,102.87946 L 309.74124,137.94889 C 348.60845,205.92964 360.2798,256.28414 359.65758,353.2291 C 359.14832,432.55854 355.80549,452.92236 332.01161,523.71259 C 307.89695,595.45696 305.36712,611.34074 308.71732,671.1578 L 312.30106,738.22488 L 295.91826,701.36359 C 277.21394,659.76504 275.38758,614.73411 286.19097,457.92542 L 293.10247,357.83676 L 267.76032,306.38454 C 241.82365,253.73088 176.71006,179.71888 187.38222,214.99924 C 195.06608,240.40085 173.31243,296.81174 121.08309,387.2746 C 56.184842,499.68034 42.378076,543.60901 46.848532,619.44957 C 52.25551,711.17574 98.378165,794.79239 178.67886,858.28008 C 204.92517,879.03102 226.71347,889.76585 243.18613,889.76577 L 268.01631,889.76577 L 233.45884,852.13653 C 185.68161,800.3043 158.11116,736.34332 153.08074,666.03818 C 150.09039,624.24407 151.61292,610.35638 158.45634,614.58592 C 163.61488,617.7741 167.67175,627.03947 167.67167,635.06442 C 167.67167,658.31484 213.56554,743.67487 247.02585,782.76562 C 263.89382,802.47199 299.56753,834.63446 326.12404,854.18438 C 372.1987,888.10258 376.82544,889.76585 431.33232,889.76577 C 462.74904,889.76577 487.0621,887.00125 485.34436,883.62222 C 436.24356,787.03891 433.85699,779.12061 434.14812,713.65069 C 434.4172,653.13214 437.55541,641.85381 472.80128,566.20547 C 516.60004,472.20016 527.5562,430.49152 527.83724,360.65255 C 528.24501,259.38647 480.07573,183.25552 387.30355,138.46085 C 358.86064,124.72732 325.22815,110.9493 312.55704,107.99909 L 289.51873,102.87946 z M 631.25366,369.6119 L 624.85413,406.47319 C 615.80067,458.91445 604.53291,483.83801 557.0191,558.01407 C 533.93214,594.05623 510.3219,635.6601 504.28697,650.42333 C 487.20307,692.21601 496.69289,777.67515 524.76547,834.47382 L 548.05976,881.83035 L 558.29902,846.50494 C 566.17562,819.49216 583.76952,796.58778 633.55749,749.23208 C 705.76304,680.55416 716.41776,658.11464 716.49541,573.62893 C 716.55234,511.65952 700.05871,463.38695 661.20347,410.56889 L 631.25366,369.6119 z"
       id="path2396" />
  </g>
</svg>
